<?xml version="1.0" encoding="UTF-8" standalone="no"?>
<!-- Created with Inkscape (http://www.inkscape.org/) -->

<svg
   version="1.1"
   id="svg1"
   width="2560"
   height="1440"
   viewBox="0 0 2560 1440"
   sodipodi:docname="Everforest-Arch-2.svg"
   inkscape:version="1.4 (e7c3feb100, 2024-10-09)"
   xmlns:inkscape="http://www.inkscape.org/namespaces/inkscape"
   xmlns:sodipodi="http://sodipodi.sourceforge.net/DTD/sodipodi-0.dtd"
   xmlns="http://www.w3.org/2000/svg"
   xmlns:svg="http://www.w3.org/2000/svg">
  <defs
     id="defs1" />
  <sodipodi:namedview
     id="namedview1"
     pagecolor="#ffffff"
     bordercolor="#000000"
     borderopacity="0.25"
     inkscape:showpageshadow="2"
     inkscape:pageopacity="0.0"
     inkscape:pagecheckerboard="0"
     inkscape:deskcolor="#d1d1d1"
     inkscape:zoom="0.69335938"
     inkscape:cx="1307.4028"
     inkscape:cy="720.40563"
     inkscape:window-width="2451"
     inkscape:window-height="1351"
     inkscape:window-x="0"
     inkscape:window-y="0"
     inkscape:window-maximized="1"
     inkscape:current-layer="layer1" />
  <g
     inkscape:groupmode="layer"
     id="layer1"
     inkscape:label="Image 1"
     style="display:inline">
    <rect
       style="display:inline;fill:#a7c080;fill-opacity:1;stroke:none;stroke-width:15.0082;paint-order:stroke markers fill"
       id="rect1"
       width="1920"
       height="1439.4476"
       x="640"
       y="0.55236" />
    <path
       style="display:inline;fill:#2f383e;fill-opacity:1;stroke-width:19.1543;paint-order:stroke markers fill"
       d="M 0.55235903,720.27618 V 0.55235903 H 1280.2762 2560 V 720.27618 1440 H 1280.2762 0.55235903 Z M 1196.2874,1379.4913 c 71.3096,-40.2497 164.0735,-87.9817 218.0761,-112.2117 88.6616,-39.7809 165.2677,-66.215 236.1807,-81.4979 12.4929,-2.6924 22.9675,-5.1484 23.2769,-5.4578 0.3094,-0.3094 -0.095,-2.8392 -0.8977,-5.6217 -8.3013,-28.763 -10.5968,-95.8116 -4.6116,-134.7125 13.0652,-84.91889 50.7833,-149.50386 101.1622,-173.22063 12.4621,-5.86675 30.0116,-10.20945 41.2577,-10.20945 11.4694,0 28.9191,4.34994 41.2576,10.28498 78.7414,37.87582 124.2128,170.3491 102.4091,298.3521 -1.5159,8.8991 -2.6336,16.2517 -2.4839,16.3391 0.1495,0.087 11.2127,2.6478 24.5845,5.6898 122.4493,27.856 256.2081,85.3558 444.9932,191.2923 23.097,12.9608 42.6112,23.9218 43.365,24.3579 1.5591,0.9019 1.7079,1.1823 -56.9176,-107.2626 -23.8749,-44.1631 -45.6294,-84.4884 -48.3436,-89.6115 -4.5909,-8.6656 -7.4586,-11.341 -41.1417,-38.3825 -45.2805,-36.3524 -59.8339,-47.3321 -88.5154,-66.7796 -24.4531,-16.5804 -49.7855,-32.1505 -75.8847,-46.6412 -8.9145,-4.9495 -15.5453,-9.0037 -14.7349,-9.0092 3.1841,-0.022 49.7857,14.6227 69.9687,21.9876 35.4781,12.9462 63.8448,25.812 89.5365,40.6094 5.065,2.9173 9.2093,4.7027 9.2093,3.9674 0,-0.7352 -13.5791,-26.6401 -30.1757,-57.5664 C 2185.6235,882.31526 2102.1072,722.4769 2042.1872,603.14611 1957.7495,434.98821 1924.264,361.61165 1827.705,133.15245 c -9.0759,-21.47385 -16.9688,-39.5367 -17.5393,-40.139673 -0.5707,-0.60297 -15.8654,35.530553 -33.9884,80.296723 -54.553,134.75209 -75.2172,183.59659 -109.2565,258.25175 l -16.3995,35.96748 15.0395,16.17138 c 33.3279,35.83598 84.0756,80.62135 128.5684,113.46296 7.0689,5.21783 12.5794,9.76012 12.2456,10.09398 -1.0665,1.06642 -34.5571,-14.25559 -61.95,-28.34223 -41.2529,-21.21404 -69.8808,-39.10497 -98.3131,-61.44035 -7.0679,-5.5523 -13.2181,-10.0951 -13.6669,-10.0951 -0.449,0 -12.2778,23.37076 -26.2863,51.93504 -38.282,78.0592 -106.2694,209.57559 -160.5157,310.50521 -82.1868,152.91488 -156.082,288.09268 -246.607,451.12248 -24.6085,44.3184 -44.7428,81.0122 -44.7428,81.5418 0,0.5294 2.8181,-0.6846 6.2624,-2.6981 3.4442,-2.0133 19.5237,-11.1459 35.732,-20.2945 z"
       id="path2" />
  </g>
</svg>
